# xmcd
#
# Track frame offsets:
#	150
#	21925
#	41860
#	65062
#	83362
#	102060
#	125182
#	146517
#	166920
#	188305
#	207947
#	231735
#	250182
#
# Disc length: 3565 seconds
#
# Revision: 1
# Processed by: cddbd v1.5.2PL0 Copyright (c) Steve Scherf et al.
# Submitted via: EZCDAudioConverter 7.1.5.1
#
DISCID=b30deb0d
DTITLE=张震岳 - 秘密基地
DYEAR=2001
DGENRE=
TTITLE0=我要钱
TTITLE1=Free Night
TTITLE2=分手吧
TTITLE3=勇气
TTITLE4=爱情你我他
TTITLE5=One Night Stand
TTITLE6=爱我别走
TTITLE7=干妹妹
TTITLE8=看妳300回
TTITLE9=自由
TTITLE10=爱不要停摆
TTITLE11=原谅
TTITLE12=爱の初体验 (Let's Do Cha-Cha mix)
EXTD=
EXTT0=
EXTT1=
EXTT2=
EXTT3=
EXTT4=
EXTT5=
EXTT6=
EXTT7=
EXTT8=
EXTT9=
EXTT10=
EXTT11=
EXTT12=
PLAYORDER=
